<?xml version="1.0" encoding="UTF-8" standalone="no"?>
<!-- Created with Inkscape (http://www.inkscape.org/) -->
<svg
   xmlns:svg="http://www.w3.org/2000/svg"
   xmlns="http://www.w3.org/2000/svg"
   version="1.0"
   width="566.92914"
   height="708.66138"
   id="svg1881">
  <defs
     id="defs1883">
  
  
 
   
   
   
   
   
  </defs>
  <g
     id="layer1">
    <path
       d="M 268.06536,631.62635 L 268.06536,694.16218 L 254.90233,694.16218 L 254.90233,631.62635 L 239.10272,631.62635 L 239.10272,620.43446 L 283.86532,620.43446 L 283.86532,631.62635 L 268.06536,631.62635 z M 309.74917,631.62635 C 299.87433,631.62635 293.94921,642.81576 293.94921,657.95702 C 293.94921,673.09828 299.87433,683.62899 309.74917,683.62899 C 319.62366,683.62899 325.54878,673.09828 325.54878,657.95702 C 325.54878,642.81576 319.62366,631.62635 309.74917,631.62635 z M 309.74917,696.1358 C 289.34114,696.1358 280.12748,678.36257 280.12748,657.95702 C 280.12748,637.55147 289.34114,619.77824 309.74917,619.77824 C 330.15437,619.77824 339.37051,637.55147 339.37051,657.95702 C 339.37051,678.36257 330.15437,696.1358 309.74917,696.1358 z M 422.23606,694.82088 C 405.12118,694.82088 399.19854,684.28769 398.53984,669.80726 L 411.04665,669.80726 C 411.04665,676.38895 414.33732,683.62899 422.23606,683.62899 C 428.81988,683.62899 432.76925,680.33832 432.76925,675.07155 C 432.76925,670.46383 429.47858,667.83151 415.65472,659.93029 C 405.77988,654.66635 399.19854,648.74088 399.19854,638.20769 C 399.19854,627.01828 406.4361,619.11954 421.57736,619.11954 C 438.03602,619.11954 443.95866,629.65025 444.61736,642.15706 L 431.4522,642.15706 C 431.4522,635.57572 428.16118,630.30895 421.57736,630.30895 C 416.31307,630.30895 412.3637,632.9434 412.3637,637.55147 C 412.3637,642.15706 416.31307,644.79151 426.84413,650.71698 C 438.69472,657.29832 445.93476,661.90639 445.93476,674.4132 C 445.93476,687.58084 434.74535,694.82088 422.23606,694.82088 z M 383.89783,694.16218 L 362.17524,654.66635 L 366.12461,654.66635 C 370.73268,654.66635 378.63142,653.34895 378.63142,642.81576 C 378.63142,633.6021 370.73268,631.62635 365.46591,631.62635 L 357.56469,631.62635 L 357.56469,694.16218 L 344.40165,694.16218 L 344.40165,620.43446 L 368.75657,620.43446 C 383.23913,620.43446 393.1115,627.67698 393.1115,641.50084 C 393.1115,654.66635 385.21524,659.93029 380.60717,661.90639 L 399.69531,694.16218 L 383.89783,694.16218 z M 213.87756,631.62635 C 204.00272,631.62635 198.08008,642.81576 198.08008,657.95702 C 198.08008,673.09828 204.00272,683.62899 213.87756,683.62899 C 223.74957,683.62899 229.67504,673.09828 229.67504,657.95702 C 229.67504,642.81576 223.74957,631.62635 213.87756,631.62635 z M 213.87756,696.1358 C 193.46953,696.1358 184.25374,678.36257 184.25374,657.95702 C 184.25374,637.55147 193.46953,619.77824 213.87756,619.77824 C 234.28524,619.77824 243.50138,637.55147 243.50138,657.95702 C 243.50138,678.36257 234.28524,696.1358 213.87756,696.1358 z M 166.48016,694.16218 L 166.48016,646.10891 L 150.02398,680.99702 L 134.22438,646.10891 L 134.22438,694.16218 L 121.05886,694.16218 L 121.05886,620.43446 L 135.54142,620.43446 L 150.02398,654.00765 L 165.16312,620.43446 L 179.64567,620.43446 L 179.64567,694.16218 L 166.48016,694.16218 z M 402.8563,591.60116 C 385.7439,591.60116 379.81878,581.07045 379.16008,566.58753 L 391.66689,566.58753 C 391.66689,573.17171 394.95756,580.41175 402.8563,580.41175 C 409.44012,580.41175 413.39197,577.12108 413.39197,571.85182 C 413.39197,567.24375 410.1013,564.61179 396.27709,556.71305 C 386.40012,551.44627 379.81878,545.52364 379.81878,534.99045 C 379.81878,523.80068 387.05882,515.89982 402.20008,515.89982 C 418.65626,515.89982 424.58138,526.43301 425.24008,538.93982 L 412.73079,538.93982 C 412.07457,532.35564 408.7839,527.08923 402.20008,527.08923 C 396.93331,527.08923 392.98394,529.72368 392.98394,534.33175 C 392.98394,538.93982 396.93331,541.57427 407.46685,547.4969 C 419.31496,554.08108 426.55748,558.68667 426.55748,571.1956 C 426.55748,584.36112 415.36559,591.60116 402.8563,591.60116 z M 499.62649,590.94245 L 499.62649,517.21687 L 512.78952,517.21687 L 512.78952,590.94245 L 499.62649,590.94245 z M 357.43748,590.94245 L 357.43748,517.21687 L 370.60264,517.21687 L 370.60264,590.94245 L 357.43748,590.94245 z M 473.95204,590.94245 L 473.95204,558.68667 L 446.96268,558.68667 L 446.96268,590.94245 L 433.13882,590.94245 L 433.13882,517.21687 L 446.96268,517.21687 L 446.96268,546.17986 L 473.2937,546.17986 L 473.2937,517.21687 L 487.11756,517.21687 L 487.11756,590.94245 L 473.95204,590.94245 z M 323.86642,558.68667 L 318.59752,558.68667 L 318.59752,546.83856 L 323.86642,546.83856 C 330.44811,546.83856 334.39748,544.20624 334.39748,537.62242 C 334.39748,531.04108 329.78941,528.40627 323.86642,528.40627 L 313.98945,528.40627 L 313.98945,579.75305 L 324.52512,579.75305 C 331.76268,579.75305 336.37075,576.46238 336.37075,568.56116 C 336.37075,561.32112 331.76268,558.68667 323.86642,558.68667 z M 327.81579,590.94245 L 300.82394,590.94245 L 300.82394,517.21687 L 325.18134,517.21687 C 339.00768,517.21687 347.56264,523.80068 347.56264,535.64879 C 347.56264,545.52364 340.3226,551.44627 337.02945,552.10497 C 341.64,553.42238 350.19709,558.68667 350.19709,570.5369 C 350.19709,582.38501 340.9813,590.94245 327.81579,590.94245 z M 267.91193,592.25986 C 256.06382,592.25986 242.23748,587.65179 242.23748,567.90245 L 242.23748,517.21687 L 255.40264,517.21687 L 255.40264,567.90245 C 255.40264,575.80119 259.35449,580.41175 267.91193,580.41175 C 275.15197,580.41175 279.10382,575.80119 279.10382,567.90245 L 279.10382,517.21687 L 292.26685,517.21687 L 292.26685,567.90245 C 292.26685,586.99308 279.10382,592.25986 267.91193,592.25986 z M 213.03674,592.91856 C 195.92185,592.91856 189.99674,581.72879 189.33804,567.90245 L 201.84733,567.90245 C 201.84733,574.48627 205.138,581.07045 213.03674,581.07045 C 219.62055,581.07045 223.56992,577.77942 223.56992,572.51053 C 223.56992,567.90245 220.27926,565.92919 206.4554,558.02797 C 196.58056,552.10497 189.99674,546.17986 189.99674,535.64879 C 189.99674,524.4569 197.23926,516.55816 212.37804,516.55816 C 228.83422,516.55816 234.75933,527.08923 235.41803,539.59816 L 222.25288,539.59816 C 222.25288,533.67305 218.96185,527.75005 212.37804,527.75005 C 206.4554,527.75005 203.16225,530.38238 203.16225,534.99045 C 203.16225,540.25438 207.11162,542.88919 217.64481,548.1556 C 229.49504,554.7373 236.73544,560.0062 236.73544,571.85182 C 236.73544,585.67604 225.54355,592.91856 213.03674,592.91856 z M 172.88186,528.40627 L 172.88186,590.94245 L 159.7167,590.94245 L 159.7167,528.40627 L 143.91922,528.40627 L 143.91922,517.21687 L 188.68182,517.21687 L 188.68182,528.40627 L 172.88186,528.40627 z M 124.82611,590.94245 L 124.82611,517.21687 L 137.99375,517.21687 L 137.99375,590.94245 L 124.82611,590.94245 z M 99.814967,590.94245 L 99.814967,542.88919 L 83.356661,577.77942 L 67.5567,542.88919 L 67.5567,590.94245 L 54.393669,590.94245 L 54.393669,517.21687 L 68.876228,517.21687 L 83.356661,550.78793 L 98.49792,517.21687 L 112.978,517.21687 L 112.978,590.94245 L 99.814967,590.94245 z "
       style="fill-rule:evenodd"
       id="_46749392" />
    <path
       d="M 283.1354,319.53754 L 194.66079,166.36109 L 283.1354,12.525579 L 372.26693,166.36109 L 283.1354,319.53754 z M 372.26693,472.71612 L 283.1354,319.53754 L 460.73976,319.53754 L 549.21259,472.71612 L 372.26693,472.71612 z M 194.66079,472.71612 L 17.716544,472.71612 L 106.18867,319.53754 L 283.1354,319.53754 L 194.66079,472.71612 z "
       style="fill:red;fill-rule:evenodd"
       id="_48318832" />
  </g>
</svg>
